<?xml version="1.0" standalone="no"?>
<!DOCTYPE svg PUBLIC "-//W3C//DTD SVG 20010904//EN"
 "http://www.w3.org/TR/2001/REC-SVG-20010904/DTD/svg10.dtd">
<svg version="1.0" xmlns="http://www.w3.org/2000/svg"
 width="256.000000pt" height="256.000000pt" viewBox="0 0 256.000000 256.000000"
 preserveAspectRatio="xMidYMid meet">

<g transform="translate(0.000000,256.000000) scale(0.100000,-0.100000)"
fill="#000000" stroke="none">
<path d="M1341 1644 c-12 -15 -40 -47 -62 -71 -40 -44 -41 -44 -56 -24 -20 30
-39 26 -66 -14 l-24 -35 -33 35 c-19 19 -37 35 -42 35 -4 0 -14 -16 -22 -35
-8 -19 -17 -35 -20 -35 -2 0 -74 36 -159 80 -151 78 -180 89 -191 71 -9 -14
39 -172 90 -298 l46 -113 -26 -54 c-14 -30 -26 -58 -26 -61 0 -4 -24 -34 -54
-67 -67 -74 -121 -174 -146 -272 -10 -42 -24 -85 -30 -96 -12 -23 -6 -40 15
-40 7 0 15 -10 17 -22 2 -16 9 -22 22 -21 11 1 25 -6 32 -15 10 -14 17 -12 59
16 27 18 52 32 55 32 4 0 18 -31 32 -68 23 -66 23 -68 6 -99 -28 -47 -42 -142
-30 -199 9 -42 8 -52 -9 -75 -24 -35 -24 -43 4 -61 75 -50 317 -13 317 47 0 7
8 22 18 33 16 20 19 21 72 6 39 -11 91 -14 178 -12 l123 3 29 -47 c17 -27 30
-61 30 -77 0 -40 9 -43 64 -25 44 15 47 15 72 -5 l27 -22 26 25 c23 21 32 24
75 19 l49 -6 -7 51 c-4 29 -1 79 5 114 l12 63 66 30 c44 20 87 51 129 92 80
78 80 97 -1 101 -58 3 -63 6 -48 31 7 10 13 11 31 1 28 -15 50 -6 50 20 0 15
7 20 29 20 34 0 48 15 32 34 -7 8 -25 56 -41 107 -35 110 -84 198 -158 280
-52 58 -53 60 -42 94 13 39 7 55 -20 55 -18 0 -18 2 -5 41 22 61 20 79 -9 79
-24 0 -22 4 32 83 118 171 167 277 128 277 -24 0 -195 -60 -291 -102 -49 -21
-96 -42 -104 -45 -10 -5 -12 0 -6 16 4 13 2 28 -5 36 -10 12 -17 12 -51 -5
-46 -24 -59 -25 -59 -5 0 18 -14 19 -40 5 -22 -12 -27 1 -32 75 -4 49 -27 57
-57 19z m-40 -271 c53 -26 72 -52 65 -92 -10 -66 -144 -174 -244 -197 -57 -13
-57 -13 -124 52 -31 30 -33 81 -8 127 29 52 74 97 98 97 10 0 22 4 28 9 5 6
36 12 69 14 33 2 65 4 71 5 6 1 26 -6 45 -15z m529 -247 c0 -11 -19 -15 -25
-6 -3 5 1 10 9 10 9 0 16 -2 16 -4z m-916 -78 c-3 -4 -1 -8 5 -8 5 0 11 -24
13 -52 3 -47 6 -53 27 -56 14 -2 21 0 17 6 -4 6 -2 13 4 17 5 3 10 2 10 -4 0
-5 8 -17 17 -27 16 -15 16 -17 -2 -30 -29 -22 -73 -17 -100 11 -26 25 -32 45
-15 45 6 0 10 -8 10 -17 1 -17 1 -17 11 0 13 22 2 80 -14 74 -6 -2 -14 -14
-18 -28 -6 -19 -7 -16 -8 17 -1 22 4 45 11 52 8 8 9 12 1 12 -6 0 -9 9 -6 21
6 22 6 22 24 -2 9 -13 15 -27 13 -31z m519 -12 c11 -76 -17 -139 -72 -162 -45
-19 -64 -18 -112 6 l-40 21 28 29 28 30 16 -21 c13 -17 20 -19 35 -11 14 8 18
20 16 49 -2 34 2 41 40 70 24 17 46 32 49 32 4 1 9 -19 12 -43z m-476 -58 c-3
-8 -6 -5 -6 6 -1 11 2 17 5 13 3 -3 4 -12 1 -19z m57 -4 c3 -8 2 -12 -4 -9 -6
3 -10 10 -10 16 0 14 7 11 14 -7z m293 -6 c-3 -8 -6 -5 -6 6 -1 11 2 17 5 13
3 -3 4 -12 1 -19z m628 -38 c3 -5 1 -10 -4 -10 -6 0 -11 5 -11 10 0 6 2 10 4
10 3 0 8 -4 11 -10z m-345 -20 c-8 -5 -19 -10 -25 -10 -5 0 -3 5 5 10 8 5 20
10 25 10 6 0 3 -5 -5 -10z m-150 -19 c0 -5 -7 -12 -16 -15 -14 -5 -15 -4 -4 9
14 17 20 19 20 6z m-560 -21 c0 -5 -7 -7 -15 -4 -8 4 -15 8 -15 10 0 2 7 4 15
4 8 0 15 -4 15 -10z m55 -20 c3 -5 1 -10 -4 -10 -6 0 -11 5 -11 10 0 6 2 10 4
10 3 0 8 -4 11 -10z m589 -50 c-23 -64 -73 -128 -85 -108 -5 7 -9 36 -9 64 l0
50 53 25 c28 13 54 23 56 22 2 -1 -5 -25 -15 -53z m-656 38 c14 -14 16 -78 3
-78 -9 0 -31 53 -31 76 0 17 12 18 28 2z m572 -2 c0 -2 -9 -6 -20 -9 -11 -3
-20 -1 -20 4 0 5 9 9 20 9 11 0 20 -2 20 -4z m-483 -38 l33 -12 -7 -70 c-3
-39 -7 -73 -9 -75 -6 -6 -64 40 -75 60 -12 24 -2 109 14 109 6 0 25 -5 44 -12z
m161 -5 c-10 -2 -28 -2 -40 0 -13 2 -5 4 17 4 22 1 32 -1 23 -4z m110 0 c-10
-2 -26 -2 -35 0 -10 3 -2 5 17 5 19 0 27 -2 18 -5z m186 -74 l6 -66 -49 -22
c-27 -11 -54 -21 -59 -21 -11 0 -27 148 -17 158 10 10 99 29 106 23 4 -3 9
-36 13 -72z m-298 46 c7 -2 12 -35 13 -84 2 -92 2 -92 -85 -70 -43 11 -44 12
-44 53 0 22 3 58 6 78 l6 37 47 -5 c25 -3 51 -7 57 -9z m158 -76 c4 -44 6 -82
4 -84 -2 -2 -30 -5 -63 -7 l-60 -3 -3 82 -3 82 28 4 c15 2 42 5 59 6 l31 1 7
-81z m126 -79 c0 -5 -8 -10 -17 -10 -15 0 -16 2 -3 10 19 12 20 12 20 0z m479
-26 c26 -43 23 -49 -13 -33 -26 12 -31 24 -20 53 8 22 9 21 33 -20z m-661 -21
c-10 -2 -28 -2 -40 0 -13 2 -5 4 17 4 22 1 32 -1 23 -4z"/>
<path d="M1376 1035 c-19 -17 -26 -34 -26 -60 0 -41 17 -53 50 -35 19 10 21
17 16 48 -5 29 -4 34 5 22 9 -13 10 -12 5 3 -3 10 -6 21 -6 23 0 3 -4 2 -10
-1 -5 -3 -10 -2 -10 4 0 5 6 12 13 14 7 3 7 6 1 6 -6 1 -23 -10 -38 -24z m27
-82 c-7 -2 -21 -2 -30 0 -10 3 -4 5 12 5 17 0 24 -2 18 -5z"/>
<path d="M1240 900 c0 -5 6 -10 14 -10 8 0 18 5 21 10 3 6 -3 10 -14 10 -12 0
-21 -4 -21 -10z"/>
</g>
</svg>
